<svg width="12" height="12" viewBox="0 0 12 13" fill="none" xmlns="http://www.w3.org/2000/svg">
<path d="M5.7699 0C5.9695 0 6.16092 0.0850958 6.30206 0.236568C6.4432 0.388039 6.52249 0.593479 6.52249 0.807692V5.38462H10.7872C10.9868 5.38462 11.1782 5.46971 11.3194 5.62118C11.4605 5.77266 11.5398 5.97809 11.5398 6.19231C11.5398 6.40652 11.4605 6.61196 11.3194 6.76343C11.1782 6.9149 10.9868 7 10.7872 7H6.52249V11.5769C6.52249 11.7911 6.4432 11.9966 6.30206 12.148C6.16092 12.2995 5.9695 12.3846 5.7699 12.3846C5.5703 12.3846 5.37887 12.2995 5.23773 12.148C5.09659 11.9966 5.0173 11.7911 5.0173 11.5769V7H0.752595C0.552994 7 0.361569 6.9149 0.22043 6.76343C0.0792909 6.61196 0 6.40652 0 6.19231C0 5.97809 0.0792909 5.77266 0.22043 5.62118C0.361569 5.46971 0.552994 5.38462 0.752595 5.38462H5.0173V0.807692C5.0173 0.593479 5.09659 0.388039 5.23773 0.236568C5.37887 0.0850958 5.5703 0 5.7699 0Z" fill="#8798B0"/>
</svg>