<svg width="20" height="20" viewBox="0 0 12 12" fill="none" xmlns="http://www.w3.org/2000/svg">
<path d="M8.28543 9.19339C7.25338 9.99452 5.95484 10.3722 4.65414 10.2496C3.35344 10.127 2.14835 9.5133 1.28417 8.53342C0.419984 7.55354 -0.0383318 6.28115 0.00251309 4.97524C0.0433579 3.66933 0.580293 2.42807 1.50402 1.50412C2.42791 0.58033 3.6691 0.0433607 4.97492 0.00251325C6.28075 -0.0383342 7.55306 0.42001 8.53288 1.28425C9.51269 2.14849 10.1264 3.35366 10.249 4.65444C10.3716 5.95522 9.99389 7.25384 9.19281 8.28595L11.7951 10.8884C11.8796 10.9669 11.9414 11.0667 11.9739 11.1774C12.0065 11.288 12.0086 11.4054 11.98 11.5171C11.9514 11.6289 11.8933 11.7308 11.8116 11.8123C11.73 11.8937 11.6279 11.9516 11.5161 11.9799C11.4044 12.0085 11.2872 12.0065 11.1766 11.9741C11.0661 11.9418 10.9663 11.8802 10.8877 11.7959L8.28543 9.19339ZM8.98736 5.13559C8.99498 4.62503 8.901 4.11806 8.71089 3.64415C8.52079 3.17025 8.23835 2.73888 7.88001 2.37514C7.52168 2.0114 7.09459 1.72254 6.62361 1.52538C6.15262 1.32822 5.64713 1.22669 5.13655 1.22669C4.62597 1.22669 4.12048 1.32822 3.64949 1.52538C3.17851 1.72254 2.75142 2.0114 2.39309 2.37514C2.03475 2.73888 1.75232 3.17025 1.56221 3.64415C1.3721 4.11806 1.27812 4.62503 1.28574 5.13559C1.30082 6.14701 1.71316 7.1119 2.43369 7.82181C3.15421 8.53172 4.12508 8.92966 5.13655 8.92966C6.14802 8.92966 7.11889 8.53172 7.83941 7.82181C8.55994 7.1119 8.97229 6.14701 8.98736 5.13559Z" fill="#8798B0"/>
</svg>
